<svg xmlns="http://www.w3.org/2000/svg" width="900" height="1600" viewBox="0 0 900 1600" role="img" aria-label="Élastique signé Maison Mirenza"><defs><filter id="g" x="0" y="0" width="100%" height="100%"><feTurbulence type="fractalNoise" baseFrequency="0.9" numOctaves="2" stitchTiles="stitch" result="n"/><feColorMatrix in="n" type="saturate" values="0"/><feComponentTransfer><feFuncA type="linear" slope="0.05"/></feComponentTransfer></filter>
      <clipPath id="band"><rect x="0" y="640" width="900" height="320"/></clipPath>
      <linearGradient id="bandg" x1="0" y1="0" x2="0" y2="1"><stop offset="0" stop-color="#8A2531"/>
        <stop offset="0.5" stop-color="#7C1F2B"/><stop offset="1" stop-color="#5E1721"/></linearGradient>
      <linearGradient id="sheen" x1="0" y1="0" x2="1" y2="0"><stop offset="0" stop-color="#fff" stop-opacity="0"/>
        <stop offset="0.5" stop-color="#fff" stop-opacity="0.6"/><stop offset="1" stop-color="#fff" stop-opacity="0"/></linearGradient>
    </defs>
    <rect width="900" height="1600" fill="#F3EFE7"/>
    <rect x="0" y="640" width="900" height="320" fill="url(#bandg)"/>
    <line x1="0" y1="640" x2="0" y2="960" stroke="#000" stroke-opacity="0.1" stroke-width="1"/><line x1="7" y1="640" x2="7" y2="960" stroke="#000" stroke-opacity="0.16" stroke-width="1"/><line x1="14" y1="640" x2="14" y2="960" stroke="#000" stroke-opacity="0.1" stroke-width="1"/><line x1="21" y1="640" x2="21" y2="960" stroke="#000" stroke-opacity="0.16" stroke-width="1"/><line x1="28" y1="640" x2="28" y2="960" stroke="#000" stroke-opacity="0.1" stroke-width="1"/><line x1="35" y1="640" x2="35" y2="960" stroke="#000" stroke-opacity="0.16" stroke-width="1"/><line x1="42" y1="640" x2="42" y2="960" stroke="#000" stroke-opacity="0.1" stroke-width="1"/><line x1="49" y1="640" x2="49" y2="960" stroke="#000" stroke-opacity="0.16" stroke-width="1"/><line x1="56" y1="640" x2="56" y2="960" stroke="#000" stroke-opacity="0.1" stroke-width="1"/><line x1="63" y1="640" x2="63" y2="960" stroke="#000" stroke-opacity="0.16" stroke-width="1"/><line x1="70" y1="640" x2="70" y2="960" stroke="#000" stroke-opacity="0.1" stroke-width="1"/><line x1="77" y1="640" x2="77" y2="960" stroke="#000" stroke-opacity="0.16" stroke-width="1"/><line x1="84" y1="640" x2="84" y2="960" stroke="#000" stroke-opacity="0.1" stroke-width="1"/><line x1="91" y1="640" x2="91" y2="960" stroke="#000" stroke-opacity="0.16" stroke-width="1"/><line x1="98" y1="640" x2="98" y2="960" stroke="#000" stroke-opacity="0.1" stroke-width="1"/><line x1="105" y1="640" x2="105" y2="960" stroke="#000" stroke-opacity="0.16" stroke-width="1"/><line x1="112" y1="640" x2="112" y2="960" stroke="#000" stroke-opacity="0.1" stroke-width="1"/><line x1="119" y1="640" x2="119" y2="960" stroke="#000" stroke-opacity="0.16" stroke-width="1"/><line x1="126" y1="640" x2="126" y2="960" stroke="#000" stroke-opacity="0.1" stroke-width="1"/><line x1="133" y1="640" x2="133" y2="960" stroke="#000" stroke-opacity="0.16" stroke-width="1"/><line x1="140" y1="640" x2="140" y2="960" stroke="#000" stroke-opacity="0.1" stroke-width="1"/><line x1="147" y1="640" x2="147" y2="960" stroke="#000" stroke-opacity="0.16" stroke-width="1"/><line x1="154" y1="640" x2="154" y2="960" stroke="#000" stroke-opacity="0.1" stroke-width="1"/><line x1="161" y1="640" x2="161" y2="960" stroke="#000" stroke-opacity="0.16" stroke-width="1"/><line x1="168" y1="640" x2="168" y2="960" stroke="#000" stroke-opacity="0.1" stroke-width="1"/><line x1="175" y1="640" x2="175" y2="960" stroke="#000" stroke-opacity="0.16" stroke-width="1"/><line x1="182" y1="640" x2="182" y2="960" stroke="#000" stroke-opacity="0.1" stroke-width="1"/><line x1="189" y1="640" x2="189" y2="960" stroke="#000" stroke-opacity="0.16" stroke-width="1"/><line x1="196" y1="640" x2="196" y2="960" stroke="#000" stroke-opacity="0.1" stroke-width="1"/><line x1="203" y1="640" x2="203" y2="960" stroke="#000" stroke-opacity="0.16" stroke-width="1"/><line x1="210" y1="640" x2="210" y2="960" stroke="#000" stroke-opacity="0.1" stroke-width="1"/><line x1="217" y1="640" x2="217" y2="960" stroke="#000" stroke-opacity="0.16" stroke-width="1"/><line x1="224" y1="640" x2="224" y2="960" stroke="#000" stroke-opacity="0.1" stroke-width="1"/><line x1="231" y1="640" x2="231" y2="960" stroke="#000" stroke-opacity="0.16" stroke-width="1"/><line x1="238" y1="640" x2="238" y2="960" stroke="#000" stroke-opacity="0.1" stroke-width="1"/><line x1="245" y1="640" x2="245" y2="960" stroke="#000" stroke-opacity="0.16" stroke-width="1"/><line x1="252" y1="640" x2="252" y2="960" stroke="#000" stroke-opacity="0.1" stroke-width="1"/><line x1="259" y1="640" x2="259" y2="960" stroke="#000" stroke-opacity="0.16" stroke-width="1"/><line x1="266" y1="640" x2="266" y2="960" stroke="#000" stroke-opacity="0.1" stroke-width="1"/><line x1="273" y1="640" x2="273" y2="960" stroke="#000" stroke-opacity="0.16" stroke-width="1"/><line x1="280" y1="640" x2="280" y2="960" stroke="#000" stroke-opacity="0.1" stroke-width="1"/><line x1="287" y1="640" x2="287" y2="960" stroke="#000" stroke-opacity="0.16" stroke-width="1"/><line x1="294" y1="640" x2="294" y2="960" stroke="#000" stroke-opacity="0.1" stroke-width="1"/><line x1="301" y1="640" x2="301" y2="960" stroke="#000" stroke-opacity="0.16" stroke-width="1"/><line x1="308" y1="640" x2="308" y2="960" stroke="#000" stroke-opacity="0.1" stroke-width="1"/><line x1="315" y1="640" x2="315" y2="960" stroke="#000" stroke-opacity="0.16" stroke-width="1"/><line x1="322" y1="640" x2="322" y2="960" stroke="#000" stroke-opacity="0.1" stroke-width="1"/><line x1="329" y1="640" x2="329" y2="960" stroke="#000" stroke-opacity="0.16" stroke-width="1"/><line x1="336" y1="640" x2="336" y2="960" stroke="#000" stroke-opacity="0.1" stroke-width="1"/><line x1="343" y1="640" x2="343" y2="960" stroke="#000" stroke-opacity="0.16" stroke-width="1"/><line x1="350" y1="640" x2="350" y2="960" stroke="#000" stroke-opacity="0.1" stroke-width="1"/><line x1="357" y1="640" x2="357" y2="960" stroke="#000" stroke-opacity="0.16" stroke-width="1"/><line x1="364" y1="640" x2="364" y2="960" stroke="#000" stroke-opacity="0.1" stroke-width="1"/><line x1="371" y1="640" x2="371" y2="960" stroke="#000" stroke-opacity="0.16" stroke-width="1"/><line x1="378" y1="640" x2="378" y2="960" stroke="#000" stroke-opacity="0.1" stroke-width="1"/><line x1="385" y1="640" x2="385" y2="960" stroke="#000" stroke-opacity="0.16" stroke-width="1"/><line x1="392" y1="640" x2="392" y2="960" stroke="#000" stroke-opacity="0.1" stroke-width="1"/><line x1="399" y1="640" x2="399" y2="960" stroke="#000" stroke-opacity="0.16" stroke-width="1"/><line x1="406" y1="640" x2="406" y2="960" stroke="#000" stroke-opacity="0.1" stroke-width="1"/><line x1="413" y1="640" x2="413" y2="960" stroke="#000" stroke-opacity="0.16" stroke-width="1"/><line x1="420" y1="640" x2="420" y2="960" stroke="#000" stroke-opacity="0.1" stroke-width="1"/><line x1="427" y1="640" x2="427" y2="960" stroke="#000" stroke-opacity="0.16" stroke-width="1"/><line x1="434" y1="640" x2="434" y2="960" stroke="#000" stroke-opacity="0.1" stroke-width="1"/><line x1="441" y1="640" x2="441" y2="960" stroke="#000" stroke-opacity="0.16" stroke-width="1"/><line x1="448" y1="640" x2="448" y2="960" stroke="#000" stroke-opacity="0.1" stroke-width="1"/><line x1="455" y1="640" x2="455" y2="960" stroke="#000" stroke-opacity="0.16" stroke-width="1"/><line x1="462" y1="640" x2="462" y2="960" stroke="#000" stroke-opacity="0.1" stroke-width="1"/><line x1="469" y1="640" x2="469" y2="960" stroke="#000" stroke-opacity="0.16" stroke-width="1"/><line x1="476" y1="640" x2="476" y2="960" stroke="#000" stroke-opacity="0.1" stroke-width="1"/><line x1="483" y1="640" x2="483" y2="960" stroke="#000" stroke-opacity="0.16" stroke-width="1"/><line x1="490" y1="640" x2="490" y2="960" stroke="#000" stroke-opacity="0.1" stroke-width="1"/><line x1="497" y1="640" x2="497" y2="960" stroke="#000" stroke-opacity="0.16" stroke-width="1"/><line x1="504" y1="640" x2="504" y2="960" stroke="#000" stroke-opacity="0.1" stroke-width="1"/><line x1="511" y1="640" x2="511" y2="960" stroke="#000" stroke-opacity="0.16" stroke-width="1"/><line x1="518" y1="640" x2="518" y2="960" stroke="#000" stroke-opacity="0.1" stroke-width="1"/><line x1="525" y1="640" x2="525" y2="960" stroke="#000" stroke-opacity="0.16" stroke-width="1"/><line x1="532" y1="640" x2="532" y2="960" stroke="#000" stroke-opacity="0.1" stroke-width="1"/><line x1="539" y1="640" x2="539" y2="960" stroke="#000" stroke-opacity="0.16" stroke-width="1"/><line x1="546" y1="640" x2="546" y2="960" stroke="#000" stroke-opacity="0.1" stroke-width="1"/><line x1="553" y1="640" x2="553" y2="960" stroke="#000" stroke-opacity="0.16" stroke-width="1"/><line x1="560" y1="640" x2="560" y2="960" stroke="#000" stroke-opacity="0.1" stroke-width="1"/><line x1="567" y1="640" x2="567" y2="960" stroke="#000" stroke-opacity="0.16" stroke-width="1"/><line x1="574" y1="640" x2="574" y2="960" stroke="#000" stroke-opacity="0.1" stroke-width="1"/><line x1="581" y1="640" x2="581" y2="960" stroke="#000" stroke-opacity="0.16" stroke-width="1"/><line x1="588" y1="640" x2="588" y2="960" stroke="#000" stroke-opacity="0.1" stroke-width="1"/><line x1="595" y1="640" x2="595" y2="960" stroke="#000" stroke-opacity="0.16" stroke-width="1"/><line x1="602" y1="640" x2="602" y2="960" stroke="#000" stroke-opacity="0.1" stroke-width="1"/><line x1="609" y1="640" x2="609" y2="960" stroke="#000" stroke-opacity="0.16" stroke-width="1"/><line x1="616" y1="640" x2="616" y2="960" stroke="#000" stroke-opacity="0.1" stroke-width="1"/><line x1="623" y1="640" x2="623" y2="960" stroke="#000" stroke-opacity="0.16" stroke-width="1"/><line x1="630" y1="640" x2="630" y2="960" stroke="#000" stroke-opacity="0.1" stroke-width="1"/><line x1="637" y1="640" x2="637" y2="960" stroke="#000" stroke-opacity="0.16" stroke-width="1"/><line x1="644" y1="640" x2="644" y2="960" stroke="#000" stroke-opacity="0.1" stroke-width="1"/><line x1="651" y1="640" x2="651" y2="960" stroke="#000" stroke-opacity="0.16" stroke-width="1"/><line x1="658" y1="640" x2="658" y2="960" stroke="#000" stroke-opacity="0.1" stroke-width="1"/><line x1="665" y1="640" x2="665" y2="960" stroke="#000" stroke-opacity="0.16" stroke-width="1"/><line x1="672" y1="640" x2="672" y2="960" stroke="#000" stroke-opacity="0.1" stroke-width="1"/><line x1="679" y1="640" x2="679" y2="960" stroke="#000" stroke-opacity="0.16" stroke-width="1"/><line x1="686" y1="640" x2="686" y2="960" stroke="#000" stroke-opacity="0.1" stroke-width="1"/><line x1="693" y1="640" x2="693" y2="960" stroke="#000" stroke-opacity="0.16" stroke-width="1"/><line x1="700" y1="640" x2="700" y2="960" stroke="#000" stroke-opacity="0.1" stroke-width="1"/><line x1="707" y1="640" x2="707" y2="960" stroke="#000" stroke-opacity="0.16" stroke-width="1"/><line x1="714" y1="640" x2="714" y2="960" stroke="#000" stroke-opacity="0.1" stroke-width="1"/><line x1="721" y1="640" x2="721" y2="960" stroke="#000" stroke-opacity="0.16" stroke-width="1"/><line x1="728" y1="640" x2="728" y2="960" stroke="#000" stroke-opacity="0.1" stroke-width="1"/><line x1="735" y1="640" x2="735" y2="960" stroke="#000" stroke-opacity="0.16" stroke-width="1"/><line x1="742" y1="640" x2="742" y2="960" stroke="#000" stroke-opacity="0.1" stroke-width="1"/><line x1="749" y1="640" x2="749" y2="960" stroke="#000" stroke-opacity="0.16" stroke-width="1"/><line x1="756" y1="640" x2="756" y2="960" stroke="#000" stroke-opacity="0.1" stroke-width="1"/><line x1="763" y1="640" x2="763" y2="960" stroke="#000" stroke-opacity="0.16" stroke-width="1"/><line x1="770" y1="640" x2="770" y2="960" stroke="#000" stroke-opacity="0.1" stroke-width="1"/><line x1="777" y1="640" x2="777" y2="960" stroke="#000" stroke-opacity="0.16" stroke-width="1"/><line x1="784" y1="640" x2="784" y2="960" stroke="#000" stroke-opacity="0.1" stroke-width="1"/><line x1="791" y1="640" x2="791" y2="960" stroke="#000" stroke-opacity="0.16" stroke-width="1"/><line x1="798" y1="640" x2="798" y2="960" stroke="#000" stroke-opacity="0.1" stroke-width="1"/><line x1="805" y1="640" x2="805" y2="960" stroke="#000" stroke-opacity="0.16" stroke-width="1"/><line x1="812" y1="640" x2="812" y2="960" stroke="#000" stroke-opacity="0.1" stroke-width="1"/><line x1="819" y1="640" x2="819" y2="960" stroke="#000" stroke-opacity="0.16" stroke-width="1"/><line x1="826" y1="640" x2="826" y2="960" stroke="#000" stroke-opacity="0.1" stroke-width="1"/><line x1="833" y1="640" x2="833" y2="960" stroke="#000" stroke-opacity="0.16" stroke-width="1"/><line x1="840" y1="640" x2="840" y2="960" stroke="#000" stroke-opacity="0.1" stroke-width="1"/><line x1="847" y1="640" x2="847" y2="960" stroke="#000" stroke-opacity="0.16" stroke-width="1"/><line x1="854" y1="640" x2="854" y2="960" stroke="#000" stroke-opacity="0.1" stroke-width="1"/><line x1="861" y1="640" x2="861" y2="960" stroke="#000" stroke-opacity="0.16" stroke-width="1"/><line x1="868" y1="640" x2="868" y2="960" stroke="#000" stroke-opacity="0.1" stroke-width="1"/><line x1="875" y1="640" x2="875" y2="960" stroke="#000" stroke-opacity="0.16" stroke-width="1"/><line x1="882" y1="640" x2="882" y2="960" stroke="#000" stroke-opacity="0.1" stroke-width="1"/><line x1="889" y1="640" x2="889" y2="960" stroke="#000" stroke-opacity="0.16" stroke-width="1"/><line x1="896" y1="640" x2="896" y2="960" stroke="#000" stroke-opacity="0.1" stroke-width="1"/><line x1="903" y1="640" x2="903" y2="960" stroke="#000" stroke-opacity="0.16" stroke-width="1"/><line x1="0" y1="648" x2="900" y2="648" stroke="#F3EFE7" stroke-opacity="0.5" stroke-width="1.4" stroke-dasharray="10 7"/><line x1="0" y1="654" x2="900" y2="654" stroke="#F3EFE7" stroke-opacity="0.5" stroke-width="1.4" stroke-dasharray="10 7"/><line x1="0" y1="946" x2="900" y2="946" stroke="#F3EFE7" stroke-opacity="0.5" stroke-width="1.4" stroke-dasharray="10 7"/><line x1="0" y1="952" x2="900" y2="952" stroke="#F3EFE7" stroke-opacity="0.5" stroke-width="1.4" stroke-dasharray="10 7"/><g clip-path="url(#band)">
      <text class="wm" x="0" y="851" font-family="Helvetica Neue,Arial,sans-serif" font-size="134"
            letter-spacing="24" fill="#F3EFE7" fill-opacity="0.92">MAISON MIRENZA  ·  MAISON MIRENZA  ·  MAISON MIRENZA  ·  MAISON MIRENZA  ·  MAISON MIRENZA  ·  MAISON MIRENZA  ·  MAISON MIRENZA  ·  MAISON MIRENZA  ·  
        
      </text>
      <text x="0" y="853" font-family="Helvetica Neue,Arial,sans-serif" font-size="134"
            letter-spacing="24" fill="#000" fill-opacity="0.18">MAISON MIRENZA  ·  MAISON MIRENZA  ·  MAISON MIRENZA  ·  MAISON MIRENZA  ·  MAISON MIRENZA  ·  MAISON MIRENZA  ·  MAISON MIRENZA  ·  MAISON MIRENZA  ·  
        
      </text>
    </g><g clip-path="url(#band)"><rect x="-400" y="640" width="300" height="320" fill="url(#sheen)" opacity="0.5">
      
      </rect></g>
    <rect width="900" height="1600" filter="url(#g)" opacity="0.6"/>
    <rect x="16" y="16" width="868" height="1568" fill="none" stroke="#211E1B" stroke-opacity="0.14"/>
    </svg>